<?xml version="1.0" encoding="UTF-8"?>
<!DOCTYPE svg PUBLIC "-//W3C//DTD SVG 1.1//EN" "http://www.w3.org/Graphics/SVG/1.1/DTD/svg11.dtd">
<svg xmlns="http://www.w3.org/2000/svg" version="1.1" width="500px" height="500px" style="shape-rendering:geometricPrecision; text-rendering:geometricPrecision; image-rendering:optimizeQuality; fill-rule:evenodd; clip-rule:evenodd" xmlns:xlink="http://www.w3.org/1999/xlink">
<g><path style="opacity:1" fill="#fefefe" d="M -0.5,-0.5 C 166.167,-0.5 332.833,-0.5 499.5,-0.5C 499.5,166.167 499.5,332.833 499.5,499.5C 332.833,499.5 166.167,499.5 -0.5,499.5C -0.5,332.833 -0.5,166.167 -0.5,-0.5 Z"/></g>
<g><path style="opacity:1" fill="#757575" d="M 195.5,213.5 C 200.141,215.485 204.807,217.485 209.5,219.5C 210.833,235.833 210.833,252.167 209.5,268.5C 204.626,270.402 199.793,272.402 195,274.5C 180.489,269.663 165.989,264.83 151.5,260C 166.112,261.934 180.779,263.767 195.5,265.5C 195.5,248.167 195.5,230.833 195.5,213.5 Z"/></g>
<g><path style="opacity:1" fill="#a6a6a6" d="M 414.5,222.5 C 417.962,221.518 421.629,221.185 425.5,221.5C 425.5,222.5 425.5,223.5 425.5,224.5C 422.5,224.5 419.5,224.5 416.5,224.5C 418.969,223.683 421.635,223.183 424.5,223C 421.183,222.502 417.85,222.335 414.5,222.5 Z"/></g>
<g><path style="opacity:1" fill="#111111" d="M 223.5,247.5 C 222.957,247.56 222.624,247.893 222.5,248.5C 224.743,249.474 227.076,249.808 229.5,249.5C 230.496,249.414 231.329,249.748 232,250.5C 232.667,255.167 232.667,259.833 232,264.5C 231.5,265 231,265.5 230.5,266C 226.5,266.667 222.5,266.667 218.5,266C 219.833,251.667 219.833,237.333 218.5,223C 222.5,222.333 226.5,222.333 230.5,223C 231,223.5 231.5,224 232,224.5C 232.667,231.5 232.667,238.5 232,245.5C 229.519,247.314 226.685,247.98 223.5,247.5 Z"/></g>
<g><path style="opacity:1" fill="#121212" d="M 238.5,222.5 C 242.767,222.203 246.934,222.536 251,223.5C 251.667,230.833 251.667,238.167 251,245.5C 247.951,246.939 244.785,248.106 241.5,249C 244.758,249.212 247.924,249.712 251,250.5C 251.193,255.75 251.693,260.917 252.5,266C 251.207,266.49 249.873,266.657 248.5,266.5C 248.666,261.489 248.499,256.489 248,251.5C 246,250.167 244,250.167 242,251.5C 241.501,256.489 241.334,261.489 241.5,266.5C 240.127,266.657 238.793,266.49 237.5,266C 238.49,251.579 238.824,237.079 238.5,222.5 Z"/></g>
<g><path style="opacity:1" fill="#151515" d="M 259.5,222.5 C 260.873,222.343 262.207,222.51 263.5,223C 262.167,237.333 262.167,251.667 263.5,266C 261.833,266.667 260.167,266.667 258.5,266C 259.49,251.579 259.824,237.079 259.5,222.5 Z"/></g>
<g><path style="opacity:1" fill="#090909" d="M 272.5,222.5 C 276.106,222.211 279.606,222.544 283,223.5C 283.176,237.741 283.676,251.908 284.5,266C 283.207,266.49 281.873,266.657 280.5,266.5C 280.5,261.167 280.5,255.833 280.5,250.5C 278.5,250.5 276.5,250.5 274.5,250.5C 274.5,255.833 274.5,261.167 274.5,266.5C 272.801,266.66 271.134,266.494 269.5,266C 271.176,251.667 272.176,237.167 272.5,222.5 Z"/></g>
<g><path style="opacity:1" fill="#2b2b2b" d="M 291.5,223.5 C 292.964,222.84 294.631,222.507 296.5,222.5C 299.011,222.288 301.178,222.955 303,224.5C 303.5,237.829 303.667,251.163 303.5,264.5C 304.833,264.5 306.167,264.5 307.5,264.5C 307.5,250.5 307.5,236.5 307.5,222.5C 308.833,222.5 310.167,222.5 311.5,222.5C 311.176,237.079 311.51,251.579 312.5,266C 308.833,266.667 305.167,266.667 301.5,266C 301,265.5 300.5,265 300,264.5C 299.5,250.837 299.333,237.171 299.5,223.5C 298.167,223.5 296.833,223.5 295.5,223.5C 295.5,237.833 295.5,252.167 295.5,266.5C 293.801,266.66 292.134,266.494 290.5,266C 291.814,259.07 292.481,251.904 292.5,244.5C 292.5,237.325 292.166,230.325 291.5,223.5 Z"/></g>
<g><path style="opacity:1" fill="#121212" d="M 331.5,223.5 C 337.901,222.174 344.401,222.174 351,223.5C 351.176,237.741 351.676,251.908 352.5,266C 351.207,266.49 349.873,266.657 348.5,266.5C 348.667,252.496 348.5,238.496 348,224.5C 343.882,223.202 339.715,223.202 335.5,224.5C 338.257,225.029 340.757,226.029 343,227.5C 343.177,240.409 343.677,253.242 344.5,266C 343.207,266.49 341.873,266.657 340.5,266.5C 340.667,253.496 340.5,240.496 340,227.5C 338.644,226.62 337.144,226.286 335.5,226.5C 335.5,239.833 335.5,253.167 335.5,266.5C 334.127,266.657 332.793,266.49 331.5,266C 332.83,251.735 332.83,237.569 331.5,223.5 Z"/></g>
<g><path style="opacity:1" fill="#141414" d="M 358.5,223.5 C 359.568,222.566 360.901,222.232 362.5,222.5C 362.5,236.5 362.5,250.5 362.5,264.5C 364.833,264.5 367.167,264.5 369.5,264.5C 369.5,250.5 369.5,236.5 369.5,222.5C 370.5,222.5 371.5,222.5 372.5,222.5C 372.667,236.504 372.5,250.504 372,264.5C 370.178,266.045 368.011,266.712 365.5,266.5C 363.359,266.387 361.525,265.72 360,264.5C 359.831,250.661 359.331,236.994 358.5,223.5 Z"/></g>
<g><path style="opacity:1" fill="#161616" d="M 393.5,224.5 C 392.081,223.549 390.415,223.216 388.5,223.5C 388.171,237.677 388.504,251.677 389.5,265.5C 388.054,266.613 386.387,266.78 384.5,266C 385.49,251.912 385.824,237.745 385.5,223.5C 383.856,223.286 382.356,223.62 381,224.5C 380.833,224.167 380.667,223.833 380.5,223.5C 385.167,222.167 389.833,222.167 394.5,223.5C 394.376,224.107 394.043,224.44 393.5,224.5 Z"/></g>
<g><path style="opacity:1" fill="#070707" d="M 400.5,223.5 C 401.568,222.566 402.901,222.232 404.5,222.5C 404.176,237.079 404.51,251.579 405.5,266C 403.833,266.667 402.167,266.667 400.5,266C 401.83,251.735 401.83,237.569 400.5,223.5 Z"/></g>
<g><path style="opacity:1" fill="#151515" d="M 414.5,222.5 C 417.85,222.335 421.183,222.502 424.5,223C 421.635,223.183 418.969,223.683 416.5,224.5C 415.344,232.323 415.177,240.323 416,248.5C 419,249.167 422,249.833 425,250.5C 425.667,255.167 425.667,259.833 425,264.5C 424.5,265 424,265.5 423.5,266C 419.848,266.499 416.182,266.665 412.5,266.5C 412.351,265.448 412.517,264.448 413,263.5C 416.057,264.451 419.223,264.784 422.5,264.5C 422.666,260.154 422.499,255.821 422,251.5C 419,250.833 416,250.167 413,249.5C 412.333,240.833 412.333,232.167 413,223.5C 413.383,222.944 413.883,222.611 414.5,222.5 Z"/></g>
<g><path style="opacity:1" fill="#141414" d="M 431.5,223.5 C 432.568,222.566 433.901,222.232 435.5,222.5C 435.5,232.833 435.5,243.167 435.5,253.5C 437.5,253.5 439.5,253.5 441.5,253.5C 441.5,243.167 441.5,232.833 441.5,222.5C 442.873,222.343 444.207,222.51 445.5,223C 444.676,237.092 444.176,251.259 444,265.5C 440.214,266.795 436.38,266.795 432.5,265.5C 435.428,264.516 438.428,264.183 441.5,264.5C 441.5,261.5 441.5,258.5 441.5,255.5C 438.552,255.777 435.719,255.444 433,254.5C 432.83,243.992 432.33,233.659 431.5,223.5 Z"/></g>
<g><path style="opacity:1" fill="#121212" d="M 462.5,266.5 C 462.5,261.167 462.5,255.833 462.5,250.5C 460.167,250.5 457.833,250.5 455.5,250.5C 455.5,255.833 455.5,261.167 455.5,266.5C 454.127,266.657 452.793,266.49 451.5,266C 452.324,251.908 452.824,237.741 453,223.5C 457,222.167 461,222.167 465,223.5C 465.176,237.741 465.676,251.908 466.5,266C 465.207,266.49 463.873,266.657 462.5,266.5 Z"/></g>
<g><path style="opacity:1" fill="#767676" d="M 178.5,222.5 C 181.146,223.487 183.812,224.487 186.5,225.5C 187.833,234.833 187.833,244.167 186.5,253.5C 184.249,254.695 181.915,255.695 179.5,256.5C 174.804,251.968 169.971,247.635 165,243.5C 162.844,244.985 160.677,246.485 158.5,248C 156.833,248.667 155.167,248.667 153.5,248C 156.35,245.318 159.016,242.484 161.5,239.5C 159.167,236.833 156.833,234.167 154.5,231.5C 155.723,230.386 157.056,230.219 158.5,231C 160.759,233.463 163.426,234.797 166.5,235C 170.704,230.964 174.704,226.798 178.5,222.5 Z"/></g>
<g><path style="opacity:1" fill="#bdbdbd" d="M 228.5,224.5 C 226.833,224.5 225.167,224.5 223.5,224.5C 223.5,231.5 223.5,238.5 223.5,245.5C 225.167,245.5 226.833,245.5 228.5,245.5C 226.735,246.461 224.735,246.795 222.5,246.5C 222.5,238.833 222.5,231.167 222.5,223.5C 224.735,223.205 226.735,223.539 228.5,224.5 Z"/></g>
<g><path style="opacity:1" fill="#ebebeb" d="M 228.5,224.5 C 229.833,231.5 229.833,238.5 228.5,245.5C 226.833,245.5 225.167,245.5 223.5,245.5C 223.5,238.5 223.5,231.5 223.5,224.5C 225.167,224.5 226.833,224.5 228.5,224.5 Z"/></g>
<g><path style="opacity:1" fill="#929292" d="M 247.5,224.5 C 245.833,224.5 244.167,224.5 242.5,224.5C 242.5,231.5 242.5,238.5 242.5,245.5C 244.167,245.5 245.833,245.5 247.5,245.5C 245.735,246.461 243.735,246.795 241.5,246.5C 241.5,238.833 241.5,231.167 241.5,223.5C 243.735,223.205 245.735,223.539 247.5,224.5 Z"/></g>
<g><path style="opacity:1" fill="#f5f5f5" d="M 247.5,224.5 C 248.833,231.5 248.833,238.5 247.5,245.5C 245.833,245.5 244.167,245.5 242.5,245.5C 242.5,238.5 242.5,231.5 242.5,224.5C 244.167,224.5 245.833,224.5 247.5,224.5 Z"/></g>
<g><path style="opacity:1" fill="#fcfcfc" d="M 280.5,248.5 C 278.5,248.5 276.5,248.5 274.5,248.5C 274.5,240.5 274.5,232.5 274.5,224.5C 276.223,223.193 278.057,223.193 280,224.5C 280.5,232.493 280.666,240.493 280.5,248.5 Z"/></g>
<g><path style="opacity:1" fill="#8e8e8e" d="M 393.5,224.5 C 392.167,224.5 390.833,224.5 389.5,224.5C 389.5,238.167 389.5,251.833 389.5,265.5C 388.504,251.677 388.171,237.677 388.5,223.5C 390.415,223.216 392.081,223.549 393.5,224.5 Z"/></g>
<g><path style="opacity:1" fill="#fbfbfb" d="M 461.5,224.5 C 461.5,232.5 461.5,240.5 461.5,248.5C 459.833,248.5 458.167,248.5 456.5,248.5C 456.5,240.5 456.5,232.5 456.5,224.5C 458.167,223.167 459.833,223.167 461.5,224.5 Z"/></g>
<g><path style="opacity:1" fill="#606060" d="M 274.5,224.5 C 274.5,232.5 274.5,240.5 274.5,248.5C 276.5,248.5 278.5,248.5 280.5,248.5C 278.393,249.468 276.059,249.802 273.5,249.5C 273.174,240.983 273.507,232.65 274.5,224.5 Z"/></g>
<g><path style="opacity:1" fill="#aeaeae" d="M 456.5,224.5 C 456.5,232.5 456.5,240.5 456.5,248.5C 458.167,248.5 459.833,248.5 461.5,248.5C 461.5,240.5 461.5,232.5 461.5,224.5C 462.493,232.65 462.826,240.983 462.5,249.5C 460.167,249.5 457.833,249.5 455.5,249.5C 455.174,240.983 455.507,232.65 456.5,224.5 Z"/></g>
<g><path style="opacity:1" fill="#f3f3f3" d="M 178.5,232.5 C 179.812,237.015 179.812,241.682 178.5,246.5C 175.793,244.157 173.126,241.823 170.5,239.5C 173.186,237.144 175.853,234.811 178.5,232.5 Z"/></g>
<g><path style="opacity:1" fill="#989898" d="M 223.5,247.5 C 225.5,248.167 227.5,248.833 229.5,249.5C 227.076,249.808 224.743,249.474 222.5,248.5C 222.624,247.893 222.957,247.56 223.5,247.5 Z"/></g>
<g><path style="opacity:1" fill="#e9e9e9" d="M 228.5,264.5 C 226.833,264.5 225.167,264.5 223.5,264.5C 223.5,260.167 223.5,255.833 223.5,251.5C 225.223,250.193 227.057,250.193 229,251.5C 229.814,256.02 229.647,260.354 228.5,264.5 Z"/></g>
<g><path style="opacity:1" fill="#b3b3b3" d="M 462.5,266.5 C 461.513,261.695 461.179,256.695 461.5,251.5C 459.833,251.5 458.167,251.5 456.5,251.5C 456.821,256.695 456.487,261.695 455.5,266.5C 455.5,261.167 455.5,255.833 455.5,250.5C 457.833,250.5 460.167,250.5 462.5,250.5C 462.5,255.833 462.5,261.167 462.5,266.5 Z"/></g>
<g><path style="opacity:1" fill="#b6b6b6" d="M 223.5,251.5 C 223.5,255.833 223.5,260.167 223.5,264.5C 225.167,264.5 226.833,264.5 228.5,264.5C 226.735,265.461 224.735,265.795 222.5,265.5C 222.181,260.637 222.514,255.97 223.5,251.5 Z"/></g>
</svg>
